# xmcd
#
# Track frame offsets:
#	150
#	17325
#	31688
#	46276
#	61351
#	76201
#	91876
#	105151
#
# Disc length: 1602 seconds
#
# Revision: 0
# Processed by: cddbd v1.5.2PL0 Copyright (c) Steve Scherf et al.
# Submitted via: EasyCDDAExtractor 10.0.5.1
#
DISCID=48064008
DTITLE=Shahram Kashani - Game Over
DYEAR=2006
DGENRE=Pop
TTITLE0=Eltemas
TTITLE1=Divoonam Kardi
TTITLE2=Gol Yakh
TTITLE3=Toe Ki Hasti?
TTITLE4=Baazi Tamoomeh
TTITLE5=Aztoe Nemisheh Gozasht
TTITLE6=Yeh Maach Bedeh
TTITLE7=Eshgh Beh Man Nayoomadeh ~ji
EXTD=
EXTT0=
EXTT1=
EXTT2=
EXTT3=
EXTT4=
EXTT5=
EXTT6=
EXTT7=
PLAYORDER=
